<?xml version="1.0" standalone="no"?><!-- Generator: Gravit.io --><svg xmlns="http://www.w3.org/2000/svg" xmlns:xlink="http://www.w3.org/1999/xlink" style="isolation:isolate" viewBox="0 0 500 500" width="500" height="500"><defs><clipPath id="_clipPath_zxTCVRXGZz0R2Pb1FVSq72Y42DP9BUnp"><rect width="500" height="500"/></clipPath></defs><g clip-path="url(#_clipPath_zxTCVRXGZz0R2Pb1FVSq72Y42DP9BUnp)"><mask id="_mask_nv7mnWanqwXF20xCTZ4n65AOwUpB1FiS" x="-200%" y="-200%" width="400%" height="400%"><rect x="-200%" y="-200%" width="400%" height="400%" style="fill:white;"/><path d=" M 155.351 390.044 L 159.989 367.415 L 130 360.099 L 95.339 190.972 L 70.223 195.375 L 44.5 143.375 L 70.223 96.375 L 129.5 96.375 L 129.5 96.375 L 129.5 96.375 L 137.249 116.474 L 250 75.875 L 362.751 116.474 L 370.5 96.375 L 370.5 96.375 L 429.777 96.375 L 455.5 143.375 L 429.777 195.375 L 404.661 190.972 L 404.661 190.972 L 370 360.099 L 340.011 367.415 L 344.649 390.044 L 250 424.125 L 155.351 390.044 Z " fill="black" stroke="none"/></mask><linearGradient id="_lgradient_0" x1="0.07299269536548936" y1="0.9996410624551328" x2="1.0340632670500005" y2="-0.019741564967694858"><stop offset="0%" stop-opacity="1" style="stop-color:rgb(152,0,0)"/><stop offset="97.3913043478261%" stop-opacity="1" style="stop-color:rgb(255,153,0)"/></linearGradient><path d=" M 155.351 390.044 L 159.989 367.415 L 130 360.099 L 95.339 190.972 L 70.223 195.375 L 44.5 143.375 L 70.223 96.375 L 129.5 96.375 L 129.5 96.375 L 129.5 96.375 L 137.249 116.474 L 250 75.875 L 362.751 116.474 L 370.5 96.375 L 370.5 96.375 L 429.777 96.375 L 455.5 143.375 L 429.777 195.375 L 404.661 190.972 L 404.661 190.972 L 370 360.099 L 340.011 367.415 L 344.649 390.044 L 250 424.125 L 155.351 390.044 Z " fill="rgb(168,104,1)" mask="url(#_mask_nv7mnWanqwXF20xCTZ4n65AOwUpB1FiS)" vector-effect="non-scaling-stroke" stroke-width="40" stroke="url(#_lgradient_0)" stroke-linejoin="round" stroke-linecap="round" stroke-miterlimit="3"/><g><path d=" M 129.5 96.375 L 70.223 96.375 L 44.5 143.375 L 70.223 195.375 L 161.5 179.375 L 129.5 96.375 Z " fill="rgb(253,253,253)"/><path d=" M 370.5 96.375 L 429.777 96.375 L 455.5 143.375 L 429.777 195.375 L 338.5 179.375 L 370.5 96.375 Z " fill="rgb(249,249,249)"/></g><g><g filter="url(#r9xFe3UvJmH4js4U0krfmor9KS45uxid)"><path d=" M 250 75.875 L 416 135.647 L 370 360.099 L 250 389.375 L 250 75.875 Z " fill="rgb(249,249,249)"/><path d=" M 250 75.875 L 84 135.647 L 130 360.099 L 250 389.375 L 250 75.875 Z " fill="rgb(253,253,253)"/></g><defs><filter id="r9xFe3UvJmH4js4U0krfmor9KS45uxid" x="-200%" y="-200%" width="400%" height="400%" filterUnits="objectBoundingBox" color-interpolation-filters="sRGB"><feGaussianBlur xmlns="http://www.w3.org/2000/svg" in="SourceGraphic" stdDeviation="4.293609062839028"/><feOffset xmlns="http://www.w3.org/2000/svg" dx="0" dy="0" result="pf_100_offsetBlur"/><feFlood xmlns="http://www.w3.org/2000/svg" flood-color="#000000" flood-opacity="0.1"/><feComposite xmlns="http://www.w3.org/2000/svg" in2="pf_100_offsetBlur" operator="in" result="pf_100_dropShadow"/><feBlend xmlns="http://www.w3.org/2000/svg" in="SourceGraphic" in2="pf_100_dropShadow" mode="normal"/></filter></defs><g filter="url(#0Ng7Wrh522YqBUYhvDSBbrLKibGGShnd)"><path d=" M 250.325 424.125 L 155.675 390.044 L 181.904 262.068 L 250.325 245.375 L 250.325 424.125 Z " fill="rgb(253,253,253)"/><path d=" M 250 424.125 L 344.649 390.044 L 318.421 262.068 L 250 245.375 L 250 424.125 Z " fill="rgb(249,249,249)"/></g><defs><filter id="0Ng7Wrh522YqBUYhvDSBbrLKibGGShnd" x="-200%" y="-200%" width="400%" height="400%" filterUnits="objectBoundingBox" color-interpolation-filters="sRGB"><feGaussianBlur xmlns="http://www.w3.org/2000/svg" in="SourceGraphic" stdDeviation="4.293609062839028"/><feOffset xmlns="http://www.w3.org/2000/svg" dx="0" dy="0" result="pf_100_offsetBlur"/><feFlood xmlns="http://www.w3.org/2000/svg" flood-color="#000000" flood-opacity="0.1"/><feComposite xmlns="http://www.w3.org/2000/svg" in2="pf_100_offsetBlur" operator="in" result="pf_100_dropShadow"/><feBlend xmlns="http://www.w3.org/2000/svg" in="SourceGraphic" in2="pf_100_dropShadow" mode="normal"/></filter></defs><path d=" M 250 252.375 L 273.298 260.764 L 266.842 292.266 L 250 296.375 L 250 252.375 Z " fill="rgb(46,46,46)"/><path d=" M 250 252.375 L 226.702 260.764 L 233.158 292.266 L 250 296.375 L 250 252.375 Z " fill="rgb(83,83,83)"/></g></g></svg>